<?xml version="1.0" standalone="no"?>
<!DOCTYPE svg PUBLIC "-//W3C//DTD SVG 20010904//EN"
 "http://www.w3.org/TR/2001/REC-SVG-20010904/DTD/svg10.dtd">
<svg version="1.0" xmlns="http://www.w3.org/2000/svg"
 width="500.000000pt" height="500.000000pt" viewBox="0 0 500.000000 500.000000"
 preserveAspectRatio="xMidYMid meet">

<g transform="translate(0.000000,500.000000) scale(0.100000,-0.100000)"
fill="#000000" stroke="none">
<path d="M2425 3982 c-7 -4 -9 -41 -7 -94 4 -79 6 -88 23 -88 18 0 20 7 17 92
-3 87 -10 107 -33 90z"/>
<path d="M2533 3977 c3 -8 15 -48 27 -88 21 -71 43 -104 62 -93 10 6 72 128
82 162 6 18 4 22 -14 22 -16 0 -28 -14 -50 -62 l-28 -63 -19 65 c-16 54 -23
66 -42 68 -18 3 -22 0 -18 -11z"/>
<path d="M2215 3963 c-34 -8 -35 -16 -18 -106 13 -73 19 -87 34 -87 15 0 19 7
19 35 0 42 13 44 43 9 15 -17 30 -25 46 -22 l23 3 -22 27 c-16 22 -19 32 -11
47 37 68 -22 116 -114 94z m83 -55 c5 -25 -46 -48 -59 -27 -5 8 -9 22 -9 32 0
25 63 20 68 -5z"/>
<path d="M2781 3923 c-5 -21 -15 -58 -21 -82 -15 -56 -9 -67 37 -75 21 -4 46
-9 56 -12 12 -4 17 0 17 14 0 15 -9 21 -35 26 -26 5 -35 12 -35 27 0 19 4 20
41 14 36 -6 40 -5 37 11 -2 12 -15 21 -33 24 -49 8 -39 36 11 32 54 -3 68 22
21 37 -83 25 -85 24 -96 -16z"/>
<path d="M2980 3868 c-7 -18 -22 -53 -32 -76 -11 -24 -17 -50 -14 -58 9 -23
33 -16 40 11 9 34 31 22 42 -23 6 -24 16 -38 28 -40 16 -4 18 0 12 32 -5 27
-4 36 7 36 34 0 60 64 39 96 -8 12 -86 54 -100 54 -5 0 -15 -15 -22 -32z m75
-32 c24 -18 13 -46 -19 -46 -30 0 -37 9 -29 38 6 25 21 28 48 8z"/>
<path d="M1907 3863 c-7 -7 -10 -203 -3 -203 18 0 39 17 47 37 11 31 53 47 79
31 15 -10 22 -10 32 0 10 10 -1 26 -52 77 -60 60 -86 75 -103 58z m66 -104
c-30 -12 -33 -10 -33 23 l0 31 25 -23 c24 -22 24 -25 8 -31z"/>
<path d="M1742 3778 c-8 -8 -5 -22 14 -55 14 -23 23 -43 20 -43 -3 0 -28 9
-57 20 -47 19 -95 19 -87 1 8 -19 94 -150 98 -150 3 -1 12 4 20 9 16 10 16 11
-29 79 -15 23 -15 24 4 19 11 -3 41 -14 67 -24 76 -29 81 -11 22 80 -27 42
-51 76 -54 76 -4 0 -11 -5 -18 -12z"/>
<path d="M3279 3743 c-11 -12 -9 -18 11 -33 l25 -19 -42 -59 c-31 -44 -39 -62
-30 -71 18 -18 23 -14 62 44 34 53 57 67 70 45 9 -15 32 -12 38 4 3 8 -18 30
-58 59 -56 40 -65 44 -76 30z"/>
<path d="M2375 3683 c-67 -9 -193 -36 -245 -53 -350 -114 -636 -398 -759 -755
-28 -83 -61 -281 -61 -372 0 -108 27 -274 60 -375 33 -97 85 -208 99 -208 5 0
33 16 63 35 70 47 139 72 253 92 84 15 107 15 227 2 325 -34 537 -7 591 75 22
33 22 39 -8 74 -43 51 -153 89 -310 107 -128 14 -228 53 -258 99 -47 72 12
180 148 270 l40 26 -180 1 c-181 0 -347 7 -354 15 -9 9 37 48 77 65 23 10 42
24 42 31 0 14 71 64 137 97 62 31 110 77 124 119 28 86 56 122 130 173 77 52
82 58 115 136 33 79 89 173 104 173 10 0 8 -17 -12 -96 -19 -79 -4 -83 33 -9
61 125 101 93 134 -107 3 -21 11 -40 17 -44 7 -5 9 2 6 20 -9 45 14 24 65 -59
48 -80 77 -118 84 -111 6 6 -56 126 -84 162 -22 30 -71 168 -80 229 l-4 30 20
-25 c12 -14 36 -50 53 -80 41 -71 91 -142 144 -206 23 -27 55 -73 72 -100 84
-142 190 -251 290 -295 135 -61 184 -90 170 -104 -3 -3 -218 -8 -479 -11
l-474 -6 -40 -26 c-158 -101 -118 -182 90 -182 299 0 553 -125 643 -318 24
-51 27 -69 27 -168 0 -109 -1 -112 -38 -187 -42 -81 -122 -173 -198 -224 -68
-47 -196 -108 -264 -126 -234 -61 -368 -109 -349 -126 17 -15 153 -31 272 -31
509 0 959 323 1121 805 43 130 61 240 61 379 0 330 -114 609 -345 842 -139
140 -286 232 -473 294 -142 47 -362 71 -497 53z"/>
<path d="M1534 3625 c-4 -9 11 -34 35 -62 44 -49 48 -68 19 -87 -15 -9 -26 -2
-68 39 -44 43 -52 47 -64 35 -13 -13 -10 -20 25 -57 65 -70 103 -80 144 -38
40 39 33 77 -21 135 -50 53 -61 59 -70 35z"/>
<path d="M3426 3558 c-54 -61 -59 -96 -21 -133 38 -39 72 -33 135 24 47 43 52
51 41 65 -12 15 -19 12 -62 -29 -50 -47 -67 -53 -87 -33 -20 20 -14 36 32 85
34 36 42 50 34 60 -16 20 -23 16 -72 -39z"/>
<path d="M1340 3423 c-52 -69 -54 -74 -39 -84 9 -5 21 -1 35 12 l21 19 52 -41
c30 -24 58 -39 66 -35 25 9 17 23 -32 62 -27 21 -52 41 -57 46 -6 4 -2 16 8
27 18 20 14 41 -7 41 -7 -1 -28 -22 -47 -47z"/>
<path d="M3582 3378 c-40 -28 -72 -57 -72 -63 0 -7 17 -32 38 -55 33 -38 42
-42 66 -36 16 4 30 16 33 26 3 11 12 20 19 20 8 0 23 9 35 21 24 24 19 46 -20
101 l-27 37 -72 -51z m88 -28 c12 -23 6 -40 -15 -40 -22 0 -40 40 -24 51 21
13 27 11 39 -11z m-61 -44 c8 -13 10 -29 7 -35 -12 -19 -32 -12 -46 15 -12 22
-12 27 0 34 22 14 25 13 39 -14z"/>
<path d="M1210 3218 c-16 -22 -30 -47 -30 -54 0 -15 148 -96 161 -88 16 9 10
31 -13 47 -20 14 -21 18 -8 26 8 6 27 11 42 11 17 0 31 8 38 20 10 18 8 20
-25 20 -28 0 -37 5 -44 24 -10 25 -30 36 -67 36 -17 0 -33 -13 -54 -42z m83
-10 c5 -16 -9 -58 -20 -58 -4 0 -16 7 -26 14 -15 12 -16 18 -7 35 12 23 45 28
53 9z"/>
<path d="M3693 3189 c-65 -36 -72 -43 -62 -60 10 -20 11 -20 42 -1 18 10 53
31 79 46 32 18 45 31 42 41 -9 22 -22 19 -101 -26z"/>
<path d="M3749 3079 c-65 -25 -76 -33 -72 -49 3 -11 6 -20 7 -20 0 0 25 9 54
20 l53 20 -36 -56 c-33 -51 -42 -90 -22 -88 32 2 167 61 167 71 0 22 -25 25
-65 8 -21 -8 -40 -13 -42 -11 -3 3 9 25 26 50 32 46 41 86 19 85 -7 0 -47 -14
-89 -30z"/>
<path d="M1129 3021 c-55 -56 -30 -151 45 -165 66 -13 116 34 116 108 0 26 -7
40 -31 60 -43 36 -91 35 -130 -3z m99 -27 c43 -30 21 -94 -31 -94 -41 0 -57
15 -57 53 0 50 45 71 88 41z"/>
<path d="M3826 2859 c-47 -13 -66 -37 -66 -86 0 -57 41 -103 90 -103 l32 0 -7
48 c-4 26 -10 51 -15 56 -14 14 -28 -2 -22 -29 6 -35 -25 -34 -39 1 -15 40 11
74 56 74 44 0 59 -25 49 -85 -7 -50 5 -59 30 -23 24 34 20 82 -9 116 -28 33
-57 42 -99 31z"/>
<path d="M1056 2788 c-17 -82 -16 -88 7 -93 41 -9 141 -25 154 -25 7 0 13 9
13 20 0 15 -9 22 -30 27 -26 5 -30 10 -30 39 0 43 -25 46 -33 4 -5 -21 -12
-30 -27 -30 -17 0 -20 7 -20 40 0 44 -26 58 -34 18z"/>
<path d="M1090 2550 c-41 -41 -12 -120 45 -120 31 0 75 41 75 70 0 29 -44 70
-75 70 -14 0 -34 -9 -45 -20z"/>
<path d="M3815 2545 c-14 -13 -25 -33 -25 -45 0 -29 44 -70 75 -70 34 0 65 33
65 70 0 64 -70 91 -115 45z"/>
<path d="M1126 2283 c3 -27 10 -52 14 -57 14 -15 28 3 22 29 -6 34 25 34 38
-1 19 -48 -30 -93 -78 -71 -26 12 -39 52 -25 76 10 18 6 51 -7 51 -16 0 -40
-44 -40 -72 0 -42 20 -76 55 -92 68 -33 135 10 135 86 0 51 -43 98 -90 98
l-31 0 7 -47z"/>
<path d="M3770 2310 c0 -15 9 -22 30 -26 26 -6 30 -11 30 -40 0 -44 25 -46 34
-3 5 25 10 30 28 27 20 -3 23 -8 20 -41 -3 -33 -1 -38 15 -35 13 2 19 16 24
53 3 28 5 52 3 54 -3 3 -152 30 -171 31 -7 0 -13 -9 -13 -20z"/>
<path d="M3765 2136 c-35 -15 -55 -52 -55 -101 0 -44 46 -85 97 -85 49 0 93
45 93 95 0 49 -15 74 -55 91 -41 17 -42 17 -80 0z m86 -60 c27 -59 -23 -106
-76 -72 -47 31 -26 96 31 96 27 0 37 -5 45 -24z"/>
<path d="M1183 2066 c-78 -29 -101 -50 -69 -62 7 -3 31 2 51 11 21 8 40 13 42
11 3 -2 -11 -28 -30 -56 -32 -47 -39 -80 -17 -80 5 0 44 14 88 30 68 26 79 34
75 50 -6 24 -2 24 -63 0 l-51 -20 36 55 c34 54 42 80 28 88 -5 2 -45 -10 -90
-27z"/>
<path d="M3651 1911 c-8 -15 -5 -20 15 -30 35 -16 25 -35 -19 -39 -24 -2 -41
-10 -47 -23 -10 -17 -7 -19 25 -19 19 0 35 -4 35 -10 0 -21 41 -50 70 -50 24
0 36 9 60 42 16 22 30 46 30 53 0 9 -139 95 -155 95 -2 0 -9 -8 -14 -19z m102
-75 c15 -12 16 -18 7 -35 -12 -23 -46 -28 -53 -8 -4 13 12 57 22 57 3 0 14 -7
24 -14z"/>
<path d="M1345 1882 c-6 -5 -37 -24 -70 -41 -74 -40 -76 -43 -65 -61 8 -13 21
-9 86 25 41 22 77 43 79 46 8 12 -20 40 -30 31z"/>
<path d="M1362 1768 c-6 -6 -12 -17 -12 -24 0 -7 -13 -17 -29 -22 -45 -16 -48
-45 -11 -102 21 -33 36 -47 44 -42 44 26 136 96 136 103 0 4 -15 27 -33 51
-34 45 -72 59 -95 36z m60 -45 c22 -20 23 -39 2 -47 -25 -10 -56 38 -37 57 9
10 15 9 35 -10z m-56 -54 c16 -17 16 -22 4 -29 -22 -14 -28 -12 -40 10 -21 39
5 53 36 19z"/>
<path d="M3517 1696 c-5 -12 46 -63 102 -103 2 -2 -4 -12 -13 -22 -18 -20 -14
-41 7 -41 10 1 64 65 91 108 15 26 -16 33 -41 10 l-23 -21 -49 41 c-54 45 -66
50 -74 28z"/>
<path d="M1505 1588 c-11 -6 -37 -29 -58 -51 -34 -35 -37 -41 -24 -54 13 -13
20 -10 61 31 49 48 64 54 84 34 20 -20 14 -37 -33 -87 -41 -44 -44 -50 -29
-62 14 -12 22 -7 65 39 57 62 64 98 24 137 -26 27 -58 31 -90 13z"/>
<path d="M3375 1545 c-40 -39 -33 -77 21 -135 50 -53 61 -59 70 -35 4 9 -10
32 -35 60 -43 47 -49 63 -29 83 20 20 34 14 81 -35 40 -41 48 -45 62 -33 14
12 11 19 -37 67 -60 61 -94 68 -133 28z"/>
<path d="M1695 1395 c-34 -53 -57 -67 -70 -45 -9 15 -32 12 -38 -4 -3 -8 18
-30 58 -59 56 -40 65 -44 76 -30 11 12 9 18 -10 32 l-23 18 40 59 c30 43 38
62 30 71 -17 21 -24 16 -63 -42z"/>
<path d="M3250 1440 c-16 -10 -16 -11 29 -79 15 -23 15 -24 -4 -19 -11 3 -41
14 -67 24 -74 28 -81 10 -27 -72 24 -37 47 -72 51 -78 5 -8 12 -6 23 4 13 14
12 19 -11 54 -14 20 -24 40 -21 42 2 3 28 -4 56 -16 58 -23 61 -23 80 -11 11
7 10 14 -5 37 -10 16 -21 31 -24 34 -3 3 -18 24 -33 48 -15 23 -28 42 -30 42
-1 0 -9 -5 -17 -10z"/>
<path d="M3072 1333 c-7 -3 -17 -16 -22 -29 -11 -29 -56 -49 -75 -34 -12 10
-45 4 -45 -9 0 -4 29 -35 64 -70 90 -89 100 -85 104 47 1 56 -1 102 -5 101 -4
0 -14 -3 -21 -6z m-12 -113 c0 -28 -2 -29 -20 -18 -23 14 -26 34 -7 41 23 10
27 7 27 -23z"/>
<path d="M1944 1285 c5 -26 3 -35 -7 -35 -40 0 -62 -74 -31 -105 15 -15 78
-45 94 -45 12 0 72 151 66 166 -9 23 -33 16 -40 -12 -9 -34 -28 -26 -40 17
-16 57 -52 69 -42 14z m46 -85 c11 -7 12 -14 4 -27 -14 -23 -27 -26 -49 -10
-37 28 5 63 45 37z"/>
<path d="M2130 1232 c0 -15 9 -21 35 -26 26 -5 35 -12 35 -27 0 -19 -4 -20
-41 -14 -36 6 -40 5 -37 -11 2 -10 16 -21 35 -26 24 -6 30 -12 26 -27 -4 -17
-9 -18 -40 -9 -27 7 -38 7 -44 -4 -11 -18 -2 -24 56 -36 34 -7 52 -7 56 0 12
19 41 157 35 166 -3 5 -23 13 -43 16 -21 4 -46 9 -55 12 -13 4 -18 0 -18 -14z"/>
<path d="M2757 1223 c-4 -3 -7 -19 -7 -35 0 -35 -16 -36 -42 -3 -20 26 -58 34
-58 13 0 -6 7 -19 15 -28 12 -13 13 -22 3 -48 -26 -67 28 -107 113 -84 38 9
37 4 19 120 -11 67 -23 85 -43 65z m11 -126 c3 -24 0 -27 -28 -27 -38 0 -52
27 -24 47 27 20 49 12 52 -20z"/>
<path d="M2330 1115 c-22 -47 -40 -88 -40 -90 0 -3 9 -5 21 -5 15 0 27 14 46
56 14 30 27 53 30 50 3 -3 13 -29 23 -58 12 -39 22 -54 38 -56 l21 -3 -21 73
c-30 108 -35 118 -58 118 -16 0 -29 -19 -60 -85z"/>
<path d="M2542 1108 c2 -50 8 -93 13 -95 25 -7 31 15 27 100 -4 78 -6 87 -23
87 -18 0 -20 -7 -17 -92z"/>
</g>
</svg>
